<svg xmlns="http://www.w3.org/2000/svg" width="252" height="104" viewBox="0 0 252 104" fill="none"><path d="M111.474 64.5154C109.931 64.5154 108.654 64.9492 107.642 65.7205L109.064 59.5504H105.882L101.857 76.9038H105.038L105.4 75.3131C106.123 76.5423 107.449 77.2653 109.449 77.2653C112.848 77.2653 115.764 74.7105 116.366 70.9024C116.969 67.1184 114.535 64.5154 111.474 64.5154ZM109.329 74.4936C107.617 74.4936 106.123 73.1198 106.485 70.9024C106.846 68.685 108.774 67.2871 110.486 67.2871C112.414 67.2871 113.643 68.685 113.281 70.9024C112.92 73.0475 111.353 74.4936 109.329 74.4936ZM123.976 64.5877C120.385 64.5877 117.276 67.1184 116.673 70.9024C116.07 74.6864 118.89 77.2171 122.482 77.2171C126 77.2171 129.11 74.6864 129.712 70.9024C130.315 67.1184 127.495 64.5877 123.976 64.5877ZM122.65 74.4936C120.915 74.4936 119.396 73.1439 119.758 70.9024C120.12 68.6609 122.072 67.3112 123.807 67.3112C125.47 67.3112 126.989 68.6609 126.627 70.9024C126.266 73.1439 124.313 74.4936 122.65 74.4936ZM137.487 64.5877C133.896 64.5877 130.787 67.1184 130.184 70.9024C129.582 74.6864 132.402 77.2171 135.993 77.2171C139.512 77.2171 142.621 74.6864 143.223 70.9024C143.826 67.1184 141.006 64.5877 137.487 64.5877ZM136.161 74.4936C134.426 74.4936 132.908 73.1439 133.269 70.9024C133.631 68.6609 135.583 67.3112 137.318 67.3112C138.981 67.3112 140.5 68.6609 140.138 70.9024C139.777 73.1439 137.825 74.4936 136.161 74.4936ZM149.142 67.4799H153.095L153.698 64.8769H149.745L150.589 61.2375H147.407L146.564 64.8769H144.37L143.768 67.4799H145.985L144.828 72.469C144.057 75.8192 145.599 77.2653 148.275 77.2653C149.432 77.2653 150.396 77.0002 151.408 76.4941L151.239 73.7223C150.54 74.0598 149.673 74.3008 149.046 74.3008C148.058 74.3008 147.72 73.6741 148.058 72.228L149.142 67.4799ZM158.33 74.349C156.329 74.349 155.196 72.9752 155.51 70.9024C155.847 68.8537 157.414 67.4317 159.414 67.4317C160.812 67.4317 161.824 68.1307 161.921 69.5527L165.199 68.9502C164.837 66.2507 162.668 64.5154 159.872 64.5154C156.353 64.5154 153.027 67.1184 152.425 70.9024C151.822 74.6864 154.329 77.2653 158.089 77.2653C160.957 77.2653 163.487 75.5059 164.596 72.7583L161.559 72.2521C160.884 73.6741 159.728 74.349 158.33 74.349ZM179.813 64.8769H176.632L176.27 66.4195C175.547 65.2144 174.222 64.5154 172.245 64.5154C168.847 64.5154 165.93 67.0702 165.328 70.8783C164.725 74.6623 167.16 77.2653 170.221 77.2653C171.763 77.2653 173.016 76.8556 174.029 76.0843L173.836 76.9038H177.017L179.813 64.8769ZM171.209 74.4936C169.281 74.4936 168.051 73.0957 168.413 70.8783C168.774 68.7332 170.341 67.2871 172.366 67.2871C174.077 67.2871 175.571 68.6609 175.21 70.8783C174.848 73.0957 172.92 74.4936 171.209 74.4936ZM197.3 64.5154C195.276 64.5154 193.83 65.359 192.793 66.7087C192.263 65.3349 190.865 64.5154 188.961 64.5154C187.322 64.5154 186.189 65.0697 185.322 65.9856L185.587 64.8769H182.405L179.634 76.9038H182.815L184.213 70.806C184.84 68.4922 186.141 67.4317 187.756 67.4317C189.154 67.4317 189.877 68.4681 189.516 70.0347L187.925 76.9038H191.106L192.48 70.9265C193.107 68.5404 194.456 67.4317 196.095 67.4317C197.493 67.4317 198.216 68.4681 197.855 70.0347L196.264 76.9038H199.421L201.157 69.384C201.832 66.4677 200.144 64.5154 197.3 64.5154ZM210.972 64.5154C209.429 64.5154 208.152 64.9492 207.139 65.6964L207.332 64.8769H204.151L200.415 81.0011H203.596L204.898 75.3372C205.621 76.5664 206.947 77.2653 208.947 77.2653C212.345 77.2653 215.262 74.7105 215.864 70.9024C216.467 67.1184 214.033 64.5154 210.972 64.5154ZM208.826 74.4936C207.115 74.4936 205.621 73.1198 205.982 70.9024C206.344 68.685 208.272 67.2871 209.983 67.2871C211.912 67.2871 213.141 68.685 212.779 70.9024C212.418 73.0475 210.851 74.4936 208.826 74.4936ZM215.661 73.9634C216.215 76.229 218.673 77.2653 221.18 77.2653C224.096 77.2653 226.434 75.8433 226.434 73.3608C226.434 71.5773 225.35 70.5168 223.229 69.8419L221.758 69.384C220.602 69.0225 220.409 68.5886 220.409 68.203C220.409 67.6487 220.794 66.9979 222.192 66.9979C223.638 66.9979 224.578 67.6969 224.747 68.6609L227.471 67.8415C227.061 65.9856 225.06 64.5154 222.192 64.5154C219.131 64.5154 217.251 66.1784 217.251 68.4681C217.251 70.2035 218.336 71.3122 220.023 71.8183L222.385 72.5655C223.036 72.7583 223.349 73.0957 223.349 73.5295C223.349 74.1803 222.602 74.7828 221.397 74.7828C220.312 74.7828 219.011 74.3008 218.818 73.0716L215.661 73.9634Z" fill="#7E55CE"></path><path d="M37.6494 44.6276C34.4679 44.6276 31.9613 45.6399 30.0814 47.5198V34.6976H23.7184V69.4044H30.0814V58.7513C30.0814 52.8705 32.4434 50.4603 36.0587 50.4603C38.9991 50.4603 40.9272 52.7259 40.9272 56.1001V69.4044H47.2902V54.7504C47.2902 48.7731 43.4339 44.6276 37.6494 44.6276ZM57.9041 44.7722C50.7217 44.7722 44.7926 49.8336 44.7926 57.4016C44.7926 64.9697 50.7217 70.0311 57.9041 70.0311C64.9418 70.0311 70.8709 64.9697 70.8709 57.4016C70.8709 49.8336 64.9418 44.7722 57.9041 44.7722ZM57.9041 64.584C54.4334 64.584 50.9627 61.8846 50.9627 57.4016C50.9627 52.9187 54.4334 50.2192 57.9041 50.2192C61.2301 50.2192 64.7008 52.9187 64.7008 57.4016C64.7008 61.8846 61.2301 64.584 57.9041 64.584ZM102.768 45.3507H96.4529L91.6807 60.1975L86.7639 45.3507H81.7989L76.8821 60.1493L72.1099 45.3507H65.7952L73.7971 69.4526H79.5333L84.3055 55.2807L89.0295 69.4526H94.7658L102.768 45.3507Z" fill="#090D17"></path></svg>